<?xml version="1.0" encoding="UTF-8" standalone="no"?>
<svg width="512" height="512" viewBox="0 0 512 512" xmlns="http://www.w3.org/2000/svg">
  <defs>
    <linearGradient id="apexBlue" x1="0%" y1="0%" x2="100%" y2="100%">
      <stop offset="0%" stop-color="#46C0FF"/>
      <stop offset="55%" stop-color="#1D9AF7"/>
      <stop offset="100%" stop-color="#147BE9"/>
    </linearGradient>
  </defs>

  <rect width="512" height="512" fill="#FFFFFF"/>

  <g transform="translate(0,-4)">
    <g fill="none" stroke="url(#apexBlue)" stroke-linecap="round" stroke-linejoin="round">
      <path d="M150 124c0-20 15-36 35-40 7-24 29-40 55-40 23 0 42 12 52 31 8-8 19-13 31-13 22 0 40 18 40 40 18 3 32 20 32 38 0 13-5 24-14 31"
            stroke-width="12"/>
      <path d="M181 173c0-12 8-22 20-24 3-17 17-30 35-30 10 0 20 4 27 12"
            stroke-width="10"/>
      <path d="M302 132c6-8 16-13 27-13 18 0 32 13 35 30 12 2 20 12 20 24"
            stroke-width="10"/>
      <circle cx="209" cy="124" r="8" fill="url(#apexBlue)" stroke="none"/>
      <circle cx="189" cy="173" r="8" fill="url(#apexBlue)" stroke="none"/>
      <circle cx="304" cy="124" r="8" fill="url(#apexBlue)" stroke="none"/>
      <circle cx="324" cy="173" r="8" fill="url(#apexBlue)" stroke="none"/>
    </g>

    <path d="M256 68L150 258H205L256 161L307 258H362L256 68Z" fill="url(#apexBlue)"/>
    <path d="M256 170L209 258H239L256 225L273 258H303L256 170Z" fill="#FFFFFF"/>
    <path d="M256 198L228 258H245L256 238L267 258H284L256 198Z" fill="url(#apexBlue)"/>

    <g fill="url(#apexBlue)">
      <path d="M85 335L120 270L155 335H135L120 307L105 335Z"/>
      <path d="M175 271H239c25 0 40 13 40 33s-15 34-40 34h-32v37h-32zm32 26v36h28c8 0 15-2 19-5 4-4 6-8 6-13s-2-10-6-13c-4-3-11-5-19-5z"/>
      <path d="M301 271H404v24h-71v24h63v24h-63v24h75v25H301z"/>
      <path d="M411 271H446l28 36 28-36h35l-46 59 50 65h-36l-31-40-31 40h-36l50-65z"/>
    </g>

    <g fill="url(#apexBlue)" transform="translate(101,403)">
      <rect x="0" y="0" width="8" height="22" rx="4"/>
      <rect x="20" y="0" width="8" height="22" rx="4"/>
      <rect x="40" y="0" width="8" height="22" rx="4"/>
      <rect x="60" y="0" width="8" height="22" rx="4"/>
      <rect x="80" y="0" width="8" height="22" rx="4"/>
      <rect x="118" y="0" width="8" height="22" rx="4"/>
      <rect x="138" y="0" width="8" height="22" rx="4"/>
      <rect x="158" y="0" width="8" height="22" rx="4"/>
      <rect x="178" y="0" width="8" height="22" rx="4"/>
      <rect x="198" y="0" width="8" height="22" rx="4"/>
      <rect x="218" y="0" width="8" height="22" rx="4"/>
      <rect x="238" y="0" width="8" height="22" rx="4"/>
      <rect x="258" y="0" width="8" height="22" rx="4"/>

      <rect x="2" y="9" width="84" height="4" rx="2"/>
      <rect x="120" y="9" width="146" height="4" rx="2"/>
    </g>
  </g>
</svg>
