<svg xmlns="http://www.w3.org/2000/svg" viewBox="0 0 96 96" fill="none">
  <defs>
    <linearGradient id="bg" x1="10" y1="10" x2="86" y2="86" gradientUnits="userSpaceOnUse">
      <stop stop-color="#E7D5FF"/>
      <stop offset="1" stop-color="#B78AF4"/>
    </linearGradient>
    <linearGradient id="heart" x1="40" y1="42" x2="59" y2="61" gradientUnits="userSpaceOnUse">
      <stop stop-color="#FF7BC6"/>
      <stop offset="1" stop-color="#F13992"/>
    </linearGradient>
  </defs>
  <rect width="96" height="96" rx="18" fill="url(#bg)"/>
  <circle cx="49" cy="48" r="33" fill="#C7A3FB" fill-opacity=".55"/>
  <path d="M48 26c6.3 0 10 5.4 10 11.3V48l10.4 10.7c2.2 2.2.6 6-2.5 6H30.1c-3.1 0-4.7-3.8-2.5-6L38 48V37.3C38 31.4 41.7 26 48 26Z" fill="white"/>
  <circle cx="48" cy="31" r="8" fill="white"/>
  <path d="M48 43.8c1.9-3.1 8-3.2 8 2.2 0 4.5-5.7 7.8-8 10-2.3-2.2-8-5.5-8-10 0-5.4 6.1-5.3 8-2.2Z" fill="url(#heart)"/>
  <path d="M17 21.2 19 15l2 6.2 6.2 2-6.2 2-2 6.2-2-6.2-6.2-2 6.2-2ZM76 18c2.4-2.8 7.2-1.2 7.2 2.7 0 3.2-3.7 5.6-5.8 7.2-2-1.6-5.8-4-5.8-7.2 0-3.9 4.8-5.5 7.2-2.7ZM19 66c2.4-2.8 7.2-1.2 7.2 2.7 0 3.2-3.7 5.6-5.8 7.2-2-1.6-5.8-4-5.8-7.2 0-3.9 4.8-5.5 7.2-2.7ZM75 60c2.4-2.8 7.2-1.2 7.2 2.7 0 3.2-3.7 5.6-5.8 7.2-2-1.6-5.8-4-5.8-7.2 0-3.9 4.8-5.5 7.2-2.7Z" fill="#FFF7FF"/>
  <circle cx="65" cy="29" r="2" fill="#A06BF1"/>
  <circle cx="71" cy="49" r="1.7" fill="#A06BF1"/>
</svg>
