<svg xmlns="http://www.w3.org/2000/svg" viewBox="0 0 24 24" fill="none">
  <g transform="translate(-0.3 -0.3) scale(1.04)">
    <path d="M9 3.3C9 2.75 9.45 2.3 10 2.3H14C14.55 2.3 15 2.75 15 3.3V5.15C15 5.7 15.45 6.15 16 6.15H17.85C18.4 6.15 18.85 6.6 18.85 7.15V10C18.85 10.55 19.3 11 19.85 11H21.7C22.25 11 22.7 11.45 22.7 12V16C22.7 16.55 22.25 17 21.7 17H19.85C19.3 17 18.85 17.45 18.85 18V20.85C18.85 21.4 18.4 21.85 17.85 21.85H14.9C14.35 21.85 13.9 21.4 13.9 20.85V19.05C13.9 18.5 13.45 18.05 12.9 18.05H11.1C10.55 18.05 10.1 18.5 10.1 19.05V20.85C10.1 21.4 9.65 21.85 9.1 21.85H6.15C5.6 21.85 5.15 21.4 5.15 20.85V18C5.15 17.45 4.7 17 4.15 17H2.3C1.75 17 1.3 16.55 1.3 16V12C1.3 11.45 1.75 11 2.3 11H4.15C4.7 11 5.15 10.55 5.15 10V7.15C5.15 6.6 5.6 6.15 6.15 6.15H8C8.55 6.15 9 5.7 9 5.15V3.3Z" stroke="currentColor" stroke-width="1.95" stroke-linejoin="round"/>
    <circle cx="12" cy="12" r="2.35" fill="currentColor"/>
  </g>
</svg>
