<svg xmlns="http://www.w3.org/2000/svg" viewBox="0 0 256 256">
  <defs>
    <linearGradient id="shield" x1="0%" y1="0%" x2="100%" y2="100%">
      <stop offset="0%" stop-color="#f8fbff"/>
      <stop offset="100%" stop-color="#e3f0ff"/>
    </linearGradient>
    <linearGradient id="brainLeft" x1="0%" y1="0%" x2="100%" y2="100%">
      <stop offset="0%" stop-color="#b8ff2f"/>
      <stop offset="50%" stop-color="#ffd532"/>
      <stop offset="100%" stop-color="#34b7ff"/>
    </linearGradient>
    <linearGradient id="brainRight" x1="0%" y1="0%" x2="100%" y2="100%">
      <stop offset="0%" stop-color="#c06cff"/>
      <stop offset="100%" stop-color="#3193ff"/>
    </linearGradient>
    <linearGradient id="banner" x1="0%" y1="0%" x2="100%" y2="100%">
      <stop offset="0%" stop-color="#1041c6"/>
      <stop offset="100%" stop-color="#0b74eb"/>
    </linearGradient>
  </defs>
  <path d="M128 16 222 54v78c0 55-34 95-94 108C68 227 34 187 34 132V54z" fill="url(#shield)" stroke="#1146a6" stroke-width="8" />
  <path d="M51 62h154v83c0 43-25 72-77 90-52-18-77-47-77-90z" fill="url(#banner)"/>
  <path d="M84 68c-18 0-33 14-33 32 0 14 8 23 18 28-5 7-5 18 4 25 10 8 24 7 33 0 8 8 20 9 29 4V74c-10-7-22-8-31 0-6-4-13-6-20-6z" fill="url(#brainLeft)" stroke="#ffffff" stroke-width="7" stroke-linejoin="round"/>
  <path d="M172 68c-7 0-14 2-20 6-9-8-21-7-31 0v103c9 5 21 4 29-4 9 7 23 8 33 0 9-7 9-18 4-25 10-5 18-14 18-28 0-18-15-32-33-32z" fill="url(#brainRight)" stroke="#ffffff" stroke-width="7" stroke-linejoin="round"/>
  <path d="M128 70v105" stroke="#ffffff" stroke-width="8" stroke-linecap="round"/>
  <path d="M74 91c14 0 18 10 18 18m-8 22c10 0 16 6 16 14m-9 20c9 0 14 5 14 11" stroke="#ffffff" stroke-width="6" stroke-linecap="round" fill="none"/>
  <path d="M182 91c-14 0-18 10-18 18m8 22c-10 0-16 6-16 14m9 20c-9 0-14 5-14 11" stroke="#ffffff" stroke-width="6" stroke-linecap="round" fill="none"/>
  <rect x="50" y="140" width="156" height="46" rx="10" fill="#0f3cb7"/>
  <text x="65" y="173" font-family="Arial, sans-serif" font-size="33" font-weight="900" fill="#eaf8ff">IQ</text>
  <text x="106" y="173" font-family="Arial, sans-serif" font-size="33" font-weight="900" fill="#ffd94a">TEST</text>
  <path d="M66 194h124l-5 27-57 18-57-18z" fill="#ffffff"/>
  <path d="M74 198h108l-4 18-50 16-50-16z" fill="#2da2ff"/>
  <path d="M128 203l6 11 13 2-10 9 2 13-11-6-11 6 2-13-10-9 13-2z" fill="#ffd94a"/>
</svg>
