<svg width="128" height="128" viewBox="0 0 128 128" xmlns="http://www.w3.org/2000/svg">
  <defs>
    <linearGradient id="rainbowFill" x1="0%" y1="0%" x2="100%" y2="100%">
      <stop offset="0%" stop-color="#34D1FF"/>
      <stop offset="22%" stop-color="#4F8CFF"/>
      <stop offset="45%" stop-color="#7D5CFF"/>
      <stop offset="68%" stop-color="#FF4DA0"/>
      <stop offset="100%" stop-color="#FFD84D"/>
    </linearGradient>
  </defs>
  <path fill="url(#rainbowFill)" d="M51 14c8.5 0 15 6.5 15 15v6h8c8.5 0 15 6.5 15 15 0 3.9-1.4 7.4-3.8 10.2 4.4 2.7 7.3 7.6 7.3 13.2 0 8.5-6.5 15-15 15h-7v10c0 8.5-6.5 15-15 15s-15-6.5-15-15v-10H33c-8.5 0-15-6.5-15-15 0-5.6 2.9-10.5 7.3-13.2C22.9 57.4 21.5 53.9 21.5 50c0-8.5 6.5-15 15-15h8v-6c0-8.5 6.5-15 15-15Zm-14.5 31c-3 0-5 2-5 5s2 5 5 5h10c4.1 0 7.5 3.4 7.5 7.5V99c0 3 2 5 5 5s5-2 5-5V81.5c0-4.1 3.4-7.5 7.5-7.5h13c3 0 5-2 5-5s-2-5-5-5h-10c-4.1 0-7.5-3.4-7.5-7.5S76.9 49 81 49h-7c-4.1 0-7.5-3.4-7.5-7.5V29c0-3-2-5-5-5s-5 2-5 5v12.5c0 4.1-3.4 7.5-7.5 7.5H36.5Z"/>
</svg>
